<?xml version="1.0" encoding="UTF-8" standalone="no"?>
<!-- Created with Inkscape (http://www.inkscape.org/) -->

<svg
   xmlns:dc="http://purl.org/dc/elements/1.1/"
   xmlns:cc="http://creativecommons.org/ns#"
   xmlns:rdf="http://www.w3.org/1999/02/22-rdf-syntax-ns#"
   xmlns:svg="http://www.w3.org/2000/svg"
   xmlns="http://www.w3.org/2000/svg"
   version="1.1"
   width="512"
   height="256"
   id="svg2">
  <metadata
     id="metadata8">
    <rdf:RDF>
      <cc:Work
         rdf:about="">
        <dc:format>image/svg+xml</dc:format>
        <dc:type
           rdf:resource="http://purl.org/dc/dcmitype/StillImage" />
        <dc:title></dc:title>
      </cc:Work>
    </rdf:RDF>
  </metadata>
  <defs
     id="defs6" />
  <rect
     width="281.48007"
     height="179.12369"
     x="43.213867"
     y="25.086664"
     id="gps196.widget.screen"
     style="fill:#4aff1c;fill-opacity:0.40201015;stroke:none" />
  <path
     d="m 937.82332,83.996651 a 26.079056,26.079056 0 1 1 -52.15811,0 26.079056,26.079056 0 1 1 52.15811,0 z"
     transform="matrix(0.50041838,0,0,0.50041838,-1.8229431,-3.8963709)"
     id="gps196.widget.button.out"
     style="fill:#4aff1c;fill-opacity:0.40201015;stroke:none" />
  <path
     d="m 937.82332,83.996651 a 26.079056,26.079056 0 1 1 -52.15811,0 26.079056,26.079056 0 1 1 52.15811,0 z"
     transform="matrix(0.50041838,0,0,0.50041838,-1.5670421,29.113569)"
     id="gps196.widget.button.in"
     style="fill:#4aff1c;fill-opacity:0.40201015;stroke:none" />
  <path
     d="m 937.82332,83.996651 a 26.079056,26.079056 0 1 1 -52.15811,0 26.079056,26.079056 0 1 1 52.15811,0 z"
     transform="matrix(0.50041838,0,0,0.50041838,-30.22683,180.08923)"
     id="gps196.widget.button.dto"
     style="fill:#4aff1c;fill-opacity:0.40201015;stroke:none" />
  <path
     d="m 937.82332,83.996651 a 26.079056,26.079056 0 1 1 -52.15811,0 26.079056,26.079056 0 1 1 52.15811,0 z"
     transform="matrix(0.56910326,0,0,0.56910326,-137.11902,174.06404)"
     id="gps196.widget.button.power"
     style="fill:#4aff1c;fill-opacity:0.40201015;stroke:none" />
  <path
     d="m 937.82332,83.996651 a 26.079056,26.079056 0 1 1 -52.15811,0 26.079056,26.079056 0 1 1 52.15811,0 z"
     transform="matrix(0.63778813,0,0,0.63778813,-174.92064,11.945369)"
     id="gps196.widget.button.page"
     style="fill:#4aff1c;fill-opacity:0.40201015;stroke:none" />
  <path
     d="m 937.82332,83.996651 a 26.079056,26.079056 0 1 1 -52.15811,0 26.079056,26.079056 0 1 1 52.15811,0 z"
     transform="matrix(0.63778813,0,0,0.63778813,-200.50974,50.840799)"
     id="gps196.widget.button.quit"
     style="fill:#4aff1c;fill-opacity:0.40201015;stroke:none" />
  <path
     d="m 937.82332,83.996651 a 26.079056,26.079056 0 1 1 -52.15811,0 26.079056,26.079056 0 1 1 52.15811,0 z"
     transform="matrix(0.63778813,0,0,0.63778813,-201.02151,94.854049)"
     id="gps196.widget.button.enter"
     style="fill:#4aff1c;fill-opacity:0.40201015;stroke:none" />
  <path
     d="m 937.82332,83.996651 a 26.079056,26.079056 0 1 1 -52.15811,0 26.079056,26.079056 0 1 1 52.15811,0 z"
     transform="matrix(0.63778813,0,0,0.63778813,-174.92063,133.74946)"
     id="gps196.widget.button.menu"
     style="fill:#4aff1c;fill-opacity:0.40201015;stroke:none" />
  <path
     d="m 937.82332,83.996651 a 26.079056,26.079056 0 1 1 -52.15811,0 26.079056,26.079056 0 1 1 52.15811,0 z"
     transform="matrix(0.63778813,0,0,0.63778813,-122.71887,141.42619)"
     id="gps196.widget.button.nrst"
     style="fill:#4aff1c;fill-opacity:0.40201015;stroke:none" />
  <path
     d="m 853.96124,266.94855 -20.54345,-35.5823 -20.54346,-35.58231 41.08691,0 41.08691,0 -20.54345,35.58231 z"
     transform="matrix(0.92683535,0,0,0.43241036,-350.81919,11.360869)"
     id="gps196.widget.rocker.up"
     style="fill:#4aff1c;fill-opacity:0.40201015;stroke:none" />
  <path
     d="m 853.96124,266.94855 -20.54345,-35.5823 -20.54346,-35.58231 41.08691,0 41.08691,0 -20.54345,35.58231 z"
     transform="matrix(0,-0.74682129,0.53191407,0,298.59919,764.69939)"
     id="gps196.widget.rocker.left"
     style="fill:#4aff1c;fill-opacity:0.40201015;stroke:none" />
  <path
     d="m 853.96124,266.94855 -20.54345,-35.5823 -20.54346,-35.58231 41.08691,0 41.08691,0 -20.54345,35.58231 z"
     transform="matrix(-0.92683535,0,0,-0.43241036,1232.1505,242.43972)"
     id="gps196.widget.rocker.down"
     style="fill:#4aff1c;fill-opacity:0.40201015;stroke:none" />
  <path
     d="m 853.96124,266.94855 -20.54345,-35.5823 -20.54346,-35.58231 41.08691,0 41.08691,0 -20.54345,35.58231 z"
     transform="matrix(0,0.74682129,-0.53191407,0,582.73224,-510.89875)"
     id="gps196.widget.rocker.right"
     style="fill:#4aff1c;fill-opacity:0.40201015;stroke:none" />
</svg>
